<?xml version="1.0" encoding="UTF-8"?>
<svg xmlns="http://www.w3.org/2000/svg" width="1800" height="900">
	<rect width="1800" height="900" fill="#cc092f"/>
	<rect width="1200" height="900" fill="#ffd200"/>
	<rect width="600" height="900" fill="#0046ae"/>
	<polygon points="816.496,531.961 824.859,531.344 825.59,538.471 833.279,535.216 835.356,545.038 852.308,527.865 875.881,539.483 831.146,619.187 815.206,630.974 843.943,641.752 873.413,607.399 869.146,629.963 860.389,651.854 896.257,672.51 935.216,649.495 916.073,609.309 922.302,606.446 947.564,643.042 975.068,629.401 939.311,587.586 915.794,537.293 940.598,529.098 957.5,545.32 960.02,534.768 968.948,539.089 967.822,530.278 976.805,532.241 965.861,514.897 993.644,491.604 1011.211,546.498 1037.087,576.079 1042.585,575.405 1061.395,598.644 1061.224,276.627 1026.475,240.086 992.743,267.591 994.148,297.226 978.992,297.788 956.428,309.35 943.801,313.503 937.853,314.683 930.104,306.263 919.718,285.494 919.043,265.008 925.441,251.65 924.263,239.02 929.996,239.132 926.342,230.599 931.4,228.581 923.822,221.9 926.46,218.813 897.831,206.521 875.994,205.061 870.1,207.642 867.237,212.976 873.019,229.31 866.844,235.484 872.963,247.439 873.187,273.651 868.304,295.767 858.481,312.493 853.318,314.458 841.023,311.652 815.262,298.067 798.984,297.17 797.862,265.625 766.653,240.535 734.828,274.886 730.281,284.99 731.741,597.521 752.341,572.6 756.662,573.666 777.934,550.653 796.008,505.075 801.342,486.159 825.7,514.954" fill="#b07f55"/>
	<path d="m 847.692,183.245 c -3.223,0 -6.038,0.822 -7.68,2.1 2.609,0.76 4.506,3.166 4.506,6.092 l 0,7.423 -2.867,0 -4.555,0 c -2.907,0 -5.315,-1.87 -6.093,-4.454 -1.278,1.642 -2.099,4.457 -2.099,7.679 0,3.223 0.821,6.039 2.099,7.679 0.761,-2.61 3.166,-4.506 6.093,-4.506 l 4.555,0 2.867,0 0,2.868 0,23.138 0,9.675 c 0,2.805 -1.754,5.132 -4.198,5.989 3.541,0.482 6.588,5.234 7.423,7.833 0.837,-2.593 3.884,-7.351 7.424,-7.833 -2.47,-0.842 -4.251,-3.166 -4.251,-5.989 l 0,-16.689 0,-16.126 0,-2.868 2.868,0 4.556,0 c 2.908,0 5.315,1.87 6.093,4.456 1.277,-1.642 2.098,-4.459 2.098,-7.68 0,-3.223 -0.82,-6.038 -2.098,-7.679 -0.761,2.609 -3.167,4.504 -6.093,4.504 l -4.556,0 -2.868,0 0,-7.422 c 0,-2.908 1.869,-5.315 4.455,-6.093 -1.64,-1.276 -4.457,-2.098 -7.679,-2.098 z" fill="#000"/>
	<path d="m 847.692,184.781 c -1.678,0 -3.156,0.314 -4.402,0.716 1.664,1.447 2.765,3.544 2.765,5.939 l 0,7.423 c 0,0.106 -0.031,0.207 -0.052,0.308 l 0,1.177 -1.178,0 c -0.1,0.021 -0.202,0.051 -0.307,0.052 l -0.666,0 -2.203,0 -4.555,0 c -2.367,0 -4.439,-1.083 -5.886,-2.713 -0.416,1.259 -0.768,2.697 -0.768,4.403 0,1.678 0.314,3.156 0.716,4.402 1.447,-1.664 3.543,-2.763 5.938,-2.763 l 4.555,0 0.973,0 1.894,0 1.537,0 c -0.01,0.154 -0.052,0.303 -0.052,0.459 l 0,0.768 c 0.021,0.1 0.051,0.201 0.052,0.307 l 0,2.868 0,23.138 0,9.675 c 0,2.317 -1.195,4.139 -2.765,5.58 1.123,0.693 2.09,1.565 2.918,2.561 0.737,0.885 1.03,1.751 1.536,2.661 0.507,-0.908 0.799,-1.776 1.536,-2.661 0.815,-0.978 1.768,-1.82 2.867,-2.509 -1.584,-1.437 -2.765,-3.305 -2.765,-5.631 l 0,-16.689 0,-16.126 0,-0.41 0,-2.458 0,-1.485 1.229,0 c 0.1,-0.02 0.201,-0.05 0.307,-0.05 l 2.867,0 4.556,0 c 2.366,0 4.438,1.083 5.886,2.712 0.415,-1.258 0.769,-2.695 0.769,-4.402 0,-1.677 -0.315,-3.156 -0.717,-4.402 -1.447,1.664 -3.543,2.763 -5.938,2.763 l -4.556,0 -2.867,0 c -0.105,0 -0.207,-0.031 -0.307,-0.052 l -1.178,0 0,-1.177 c -0.021,-0.099 -0.051,-0.201 -0.052,-0.308 l 0,-7.422 c 0,-2.367 1.084,-4.438 2.713,-5.887 -1.259,-0.414 -2.696,-0.768 -4.402,-0.768 l -0.001,0 z" fill="#f5d402"/>
	<polygon points="798.64,565.511 788.162,565.193 777.367,570.274 773.873,582.022 775.46,587.42 787.209,600.121 796.735,594.722 804.356,586.466 806.26,579.165 833.567,543.601 832.296,534.712 826.263,538.522 824.041,531.219 820.231,532.49" fill="#d10429"/>
	<polygon points="990.107,589.005 1002.806,600.438 1006.613,599.485 1020.589,583.29 1017.413,572.178 1004.389,564.241 994.552,565.193 972.638,532.49 968.831,530.9 967.247,537.252 960.892,535.346 958.354,542.332 987.244,581.387" fill="#d10429"/>
	<rect x="1052.3169" y="157.29242" width="20.50271" height="20.50304" transform="scale(.9) matrix(0.878,0.479,-0.213,0.977,0,0)" fill="#000"/>
	<path d="m 725.904,418.734 -5.836,2.663 65.936,144.417 7.014,0 -67.115,-147.079 0,-0.001 0,0.001 z m 77.762,170.32 -4.76,4.915 2.969,6.553 5.784,-2.662 -3.992,-8.806 0,0 -0.001,0 z" fill="#000"/>
	<rect x="1056.2102" y="161.18571" width="12.717013" height="12.717711" transform="scale(.9) matrix(0.878,0.479,-0.213,0.977,0,0)" fill="#f5d402"/>
	<polygon points="895.482,551.223 935.495,529.313 982.484,507.086 991.376,493.434 991.376,416.913 800.862,416.595 801.18,494.387 806.895,503.595 843.092,523.598 889.449,544.874" fill="#0b45bb"/>
	<path d="m 798.649,322.952 c 0,0 2.405,7.013 2.405,7.013 0,0 -0.563,89.333 -0.563,89.333 0,0 3.328,3.685 3.328,3.685 0,0 27.491,3.277 27.491,3.277 0,0 29.743,-4.352 29.743,-4.352 0,0 17.271,2.667 29.182,4.507 0.012,0.06 0.358,1.791 0.358,1.791 0,0 4.321,-0.659 5.682,-0.871 1.338,0.207 5.631,0.871 5.631,0.871 0,0 0.346,-1.731 0.358,-1.791 11.91,-1.84 29.182,-4.507 29.182,-4.507 0,0 29.743,4.352 29.743,4.352 0,0 27.491,-3.277 27.491,-3.277 0,0 3.328,-3.685 3.328,-3.685 0,0 -0.564,-89.333 -0.564,-89.333 0,0 2.407,-7.013 2.407,-7.013 0,0 -32.917,0.254 -32.917,0.254 0,0 -37.621,0.374 -64.657,0.667 -27.031,-0.293 -64.709,-0.667 -64.709,-0.667 0,0 -32.917,-0.254 -32.917,-0.254 l -0.001,0 -0.001,0 z" fill="#d10429"/>
	<path d="m 861.053,421.907 c 0,0 -20.387,-4.984 -28.002,-15.051 -13.313,11.976 -29.232,16.126 -29.232,16.126 0,0 16.607,7.498 29.232,17.048 5.817,-8.336 28.002,-18.123 28.002,-18.123 z" fill="#000"/>
	<path d="m 931.443,421.907 c 0,0 22.186,9.786 28.004,18.123 12.623,-9.55 29.229,-17.048 29.229,-17.048 0,0 -15.917,-4.151 -29.229,-16.126 -7.615,10.066 -28.004,15.051 -28.004,15.051 z" fill="#000"/>
	<path d="m 896.223,330.425 -5.735,16.281 -15.614,-7.424 7.423,15.615 -16.279,5.784 16.279,5.785 -7.423,15.563 15.614,-7.423 5.735,16.279 5.785,-16.279 15.614,7.423 -7.422,-15.563 16.279,-5.785 -16.279,-5.784 7.422,-15.615 -15.614,7.424 -5.785,-16.281 z" fill="#000"/>
	<polygon points="863.645,451.696 869.258,445.632 875.542,451.92 869.707,457.758" fill="#f5d402"/>
	<polygon points="929.429,451.696 923.372,444.959 917.081,451.471 922.697,457.534" fill="#f5d402"/>
	<polygon points="916.632,464.27 913.716,470.78 913.49,488.741 918.206,498.845 924.488,501.538 923.597,477.964 927.863,461.573" fill="#f5d402"/>
	<polygon points="868.808,481.781 868.808,501.089 874.421,497.048 878.238,488.291 878.911,473.026 875.994,463.819 864.767,461.798" fill="#f5d402"/>
	<polygon points="946.493,505.58 946.269,493.905 956.149,480.435 967.822,477.74 954.8,471.453 942.227,474.146 935.72,481.781 935.045,494.13 944.253,504.906" fill="#f5d402"/>
	<polygon points="838.949,506.255 842.317,499.966 847.703,503.559 854.214,502.213 858.481,495.701 855.561,489.639 852.419,487.168 856.908,484.7 858.707,477.29 852.643,470.33 846.806,471.229 843.887,473.474 842.54,468.087 835.58,464.044 829.743,466.289 826.824,472.35 828.395,477.74 822.333,477.066 817.394,481.781 816.721,488.068 820.088,492.108 824.803,493.681 827.499,493.456 825.254,499.068 827.048,504.682 832.662,507.825" fill="#f5d402"/>
	<path d="m 896.275,341.38 3.686,10.394 9.931,-4.761 -4.71,9.982 10.342,3.687 -10.342,3.686 4.71,9.931 -9.931,-4.71 -3.737,10.341 -3.686,-10.341 -9.931,4.71 4.71,-9.931 -10.341,-3.686 10.341,-3.687 -4.71,-9.982 9.931,4.761 3.737,-10.394 z" fill="#ffd200"/>
	<path d="m 863.459,327.969 c -0.939,6.577 -34.042,20.25 -34.042,47.814 0,35.291 33.019,43.617 33.019,43.617 l -1.384,2.508 -8.036,14.641 c 0,0 13.645,0.683 20.887,6.861 8.733,7.448 7.883,23.229 7.883,34.709 0,9.045 -1.143,18.59 -5.784,22.524 -6.232,5.284 -10.445,5.675 -10.445,11.878 0,5.174 3.977,6.211 10.445,9.625 8.287,4.373 7.901,10.238 20.22,10.238 12.321,0 11.985,-5.864 20.273,-10.238 6.468,-3.414 10.444,-4.451 10.444,-9.625 0,-6.203 -4.214,-6.594 -10.444,-11.878 -4.641,-3.936 -5.784,-13.48 -5.784,-22.524 0,-11.48 -0.849,-27.261 7.883,-34.709 7.243,-6.177 20.886,-6.861 20.887,-6.861 l -8.038,-14.641 -1.381,-2.508 c 0,0 33.019,-8.326 33.019,-43.617 0,-27.563 -33.103,-41.237 -34.044,-47.814 -3.235,11.381 11.058,27.1 11.058,45.715 0,24.086 -17.764,25.239 -17.764,25.239 -4.157,0 -5.841,2.968 -7.475,2.968 -3.497,-0.365 -5.143,-4.813 -8.601,-4.813 -3.247,0 -5.74,5.017 -10.033,5.017 -4.292,0 -6.735,-5.017 -9.983,-5.017 -3.456,0 -5.103,4.448 -8.6,4.813 -1.634,0 -3.319,-2.968 -7.476,-2.968 0,0 -17.763,-1.153 -17.763,-25.239 0,-18.615 14.295,-34.336 11.057,-45.715 z" fill="#000"/>
	<path d="m 832.744,411.875 c 6.729,7.703 17.407,10.648 17.407,10.648 -0.002,0 -17.099,12.696 -17.099,12.696 l -0.206,0.255 -0.358,-0.307 -18.941,-11.877 c 0,0 12.087,-4.167 19.198,-11.416 l 0,0.001 z" fill="#ffd200"/>
	<path d="m 858.649,337.951 c 1.357,2.924 -11.058,20.95 -11.058,35.734 0,18.128 9.667,28.821 22.576,28.821 2.462,0 5.155,3.328 7.475,3.328 3.782,0 6.298,-4.198 8.601,-4.198 2.927,0 4.9,4.607 9.982,4.607 5.083,0 7.107,-4.607 10.034,-4.607 2.302,0 4.818,4.198 8.6,4.198 2.321,0 5.012,-3.328 7.475,-3.328 12.909,0 22.577,-10.693 22.577,-28.821 0,-14.784 -12.416,-32.81 -11.058,-35.734 0,0 24.214,17.369 24.214,37.832 0,32.963 -33.429,41.109 -33.429,41.109 l 7.525,16.944 c 0,0 -10.362,1.554 -16.689,6.656 -8.439,6.805 -8.55,25.191 -8.55,37.626 0,14.648 0.545,20.855 5.837,24.829 5.58,4.193 9.777,5.096 9.777,9.369 0,3.723 -4.345,5.246 -9.983,7.73 -6.413,2.827 -7.052,7.731 -16.33,7.731 -9.279,0 -9.867,-4.904 -16.28,-7.731 -5.637,-2.484 -9.983,-4.006 -9.983,-7.73 0,-4.273 4.197,-5.176 9.777,-9.369 5.292,-3.974 5.836,-10.181 5.836,-24.829 0,-12.435 -0.11,-30.821 -8.549,-37.626 -6.328,-5.104 -16.689,-6.656 -16.689,-6.656 l 7.524,-16.944 c 0,0 -33.428,-8.145 -33.428,-41.109 0,-20.463 24.214,-37.832 24.214,-37.832 l 0.002,0 z" fill="#ffd200"/>
	<path d="m 959.754,411.875 c 7.112,7.248 19.198,11.415 19.198,11.415 0,0 -12.609,6.28 -18.943,11.877 0.238,1.155 -0.312,0.268 -0.357,0.307 -0.295,0.376 -0.113,-0.141 -0.204,-0.255 -5.986,-6.871 -17.098,-12.696 -17.098,-12.696 0,0 10.676,-2.945 17.405,-10.648 z" fill="#ffd200"/>
	<path d="m 869.398,443.614 -7.935,7.934 7.935,7.935 7.935,-7.935 -7.935,-7.934 z" fill="#000"/>
	<path d="m 923.099,443.614 -7.934,7.934 7.934,7.935 7.935,-7.935 -7.935,-7.934 z" fill="#000"/>
	<path d="m 869.398,447.402 4.147,4.145 -4.147,4.199 -4.198,-4.199 4.198,-4.145 z" fill="#ffd200"/>
	<path d="m 923.099,447.402 4.199,4.145 -4.199,4.199 -4.146,-4.199 4.146,-4.145 z" fill="#ffd200"/>
	<path d="m 862.079,459.483 c 1.576,3.899 5.323,15.977 5.323,30.46 0,10.025 -0.972,15.307 -0.972,15.307 0,0 11.186,-3.293 13.414,-14.641 1.044,-5.32 2.207,-24.918 -3.175,-28.259 0,0 -14.589,-2.867 -14.589,-2.867 z" fill="#000"/>
	<path d="m 930.42,459.483 c 0,0 -14.591,2.868 -14.591,2.868 -5.381,3.34 -4.218,22.938 -3.174,28.259 2.227,11.348 13.413,14.641 13.413,14.641 0,0 -0.972,-5.282 -0.972,-15.307 0,-14.483 3.747,-26.562 5.325,-30.46 l 0,-0.001 z" fill="#000"/>
	<path d="m 834.895,462.658 c -0.625,0.027 -1.266,0.098 -1.895,0.255 -5.031,1.262 -8.071,6.385 -6.808,11.416 0.193,0.77 0.511,1.481 0.87,2.15 -0.733,-0.244 -1.498,-0.406 -2.304,-0.461 -0.323,-0.022 -0.655,-0.011 -0.972,0 -4.761,0.16 -8.73,3.903 -9.061,8.755 -0.354,5.174 3.579,9.629 8.755,9.983 0.772,0.052 1.523,0.024 2.251,-0.103 -0.445,0.611 -0.83,1.263 -1.125,1.996 -1.937,4.813 0.409,10.351 5.222,12.288 4.812,1.935 10.298,-0.461 12.234,-5.273 0.296,-0.735 0.461,-1.452 0.564,-2.202 0.443,0.615 0.976,1.179 1.586,1.689 3.979,3.328 9.931,2.801 13.259,-1.177 3.329,-3.978 2.801,-9.881 -1.178,-13.208 -0.602,-0.504 -1.27,-0.9 -1.945,-1.228 0.723,-0.232 1.426,-0.552 2.098,-0.972 4.395,-2.755 5.725,-8.609 2.969,-13.004 -1.894,-3.021 -5.222,-4.574 -8.549,-4.351 -1.513,0.101 -3.029,0.572 -4.403,1.434 -0.671,0.421 -1.267,0.888 -1.791,1.433 0.001,-0.756 -0.064,-1.534 -0.256,-2.303 -1.104,-4.403 -5.151,-7.305 -9.522,-7.117 l 0.001,0.001 0,0.001 z" fill="#000"/>
	<path d="m 867.197,463.885 c 0,0 7.833,1.639 7.833,1.639 2.897,3.998 2.405,10.462 2.405,19.455 0,9.067 -6.808,12.541 -6.808,12.541 0,-21.794 -2.247,-27.034 -3.43,-33.634 l 0,-0.001 z" fill="#ffd200"/>
	<path d="m 925.3,463.885 c -1.185,6.602 -3.429,11.841 -3.429,33.634 0,0 -6.809,-3.474 -6.809,-12.541 0,-8.993 -0.492,-15.455 2.406,-19.454 0,0 7.832,-1.639 7.832,-1.639 z" fill="#ffd200"/>
	<path d="m 835.458,466.6 c 3.393,-0.146 6.512,2.105 7.372,5.528 0.204,0.816 0.226,1.618 0.153,2.407 -0.06,0.654 -0.234,1.248 -0.46,1.842 -1.133,-0.414 -2.359,-0.615 -3.635,-0.615 -3.159,0 -5.987,1.39 -7.935,3.585 -0.511,-0.452 -0.955,-0.952 -1.33,-1.536 -0.42,-0.649 -0.775,-1.359 -0.973,-2.15 -0.982,-3.913 1.411,-7.876 5.324,-8.857 0.488,-0.124 1,-0.185 1.485,-0.205 l 0,0.001 0.001,0 z" fill="#ffd200"/>
	<path d="m 952.433,469.62 c -12.018,0 -20.813,9.262 -19.605,20.63 1.017,9.587 8.808,17.619 18.429,19.914 -1.643,-2.687 -2.735,-5.682 -3.072,-8.856 -1.205,-11.37 7.588,-20.581 19.607,-20.581 1.894,0 3.729,0.234 5.528,0.667 -4.237,-6.947 -12.215,-11.775 -20.887,-11.775 l 0.001,0.001 -0.001,0 0,-0.001 z" fill="#000"/>
	<path d="m 850.099,472.23 c 2.347,0.078 4.598,1.294 5.937,3.43 2.144,3.418 1.115,7.942 -2.303,10.085 -0.714,0.447 -1.478,0.744 -2.254,0.922 -0.646,0.149 -1.303,0.135 -1.945,0.102 0.004,-0.104 0,-0.201 0,-0.308 0,-4.349 -2.615,-8.11 -6.348,-9.777 0.264,-0.638 0.574,-1.246 1.023,-1.792 0.482,-0.583 1.063,-1.11 1.742,-1.536 1.282,-0.804 2.736,-1.174 4.146,-1.126 l 0.001,0 z" fill="#ffd200"/>
	<path d="m 952.433,473.869 c 3.762,0 7.376,1.152 10.495,3.072 -11.729,2.268 -20.17,12.628 -18.942,24.727 -3.738,-3.096 -6.473,-7.266 -6.962,-11.877 -0.951,-8.979 5.571,-15.922 15.41,-15.922 l -0.001,0 z" fill="#ffd200"/>
	<path d="m 826.499,478.271 c 0.851,0.059 1.614,0.294 2.354,0.613 0.592,0.259 1.139,0.591 1.638,0.973 -1.422,1.821 -2.252,4.12 -2.252,6.604 0,1.949 0.523,3.754 1.433,5.325 -0.618,0.387 -1.267,0.693 -1.995,0.871 -0.707,0.172 -1.439,0.256 -2.203,0.204 -4.024,-0.276 -7.083,-3.756 -6.808,-7.781 0.276,-4.025 3.809,-7.085 7.833,-6.809 z" fill="#ffd200"/>
	<path d="m 838.888,479.346 c 3.907,0 7.065,3.209 7.065,7.118 0,3.907 -3.158,7.065 -7.065,7.065 -3.909,0 -7.066,-3.158 -7.066,-7.065 0,-3.909 3.158,-7.118 7.066,-7.118 z" fill="#ffd200"/>
	<path d="m 849.484,487.485 c 0.699,0.078 1.375,0.246 2.047,0.512 0.698,0.278 1.39,0.617 1.996,1.126 3.094,2.589 3.459,7.195 0.871,10.29 -2.589,3.094 -7.196,3.51 -10.29,0.922 -0.653,-0.547 -1.127,-1.202 -1.536,-1.895 -0.324,-0.551 -0.535,-1.137 -0.716,-1.74 4.119,-1.19 7.203,-4.822 7.628,-9.214 l 0,-0.001 z" fill="#ffd200"/>
	<path d="m 830.03,492.401 c 1.912,2.832 5.177,4.71 8.858,4.71 0.773,0 1.524,-0.099 2.251,-0.257 0.154,0.672 0.248,1.35 0.205,2.049 -0.047,0.758 -0.162,1.508 -0.461,2.253 -1.505,3.742 -5.779,5.549 -9.522,4.044 -3.742,-1.505 -5.602,-5.778 -4.096,-9.522 0.305,-0.755 0.726,-1.413 1.229,-1.996 0.443,-0.514 0.973,-0.922 1.536,-1.28 l 0.001,0 -0.001,0 0,0 z" fill="#ffd200"/>
	<path d="m 883.577,509.806 c -6.567,0 -10.75,1.386 -10.75,3.379 0,1.994 4.184,3.328 10.75,3.328 1.75,0 3.737,-1.019 3.737,-3.328 0,-2.309 -1.988,-3.379 -3.737,-3.379 z" fill="#000"/>
	<path d="m 908.919,509.806 c -1.75,0 -3.737,1.071 -3.737,3.379 -0.001,2.309 1.987,3.328 3.737,3.328 6.568,0 10.75,-1.333 10.75,-3.328 0,-1.994 -4.183,-3.379 -10.75,-3.379 z" fill="#000"/>
	<path d="m 1100.131,393.649 -11.365,8.294 1.281,2.712 c 0,0 -2.08,0.714 -3.022,2.559 -0.94,1.847 0.615,4.455 0.615,4.455 0,0 -10.804,-0.943 -12.491,0.154 -1.528,0.99 0.647,8.474 -0.359,14.795 -1.402,8.81 -4.875,8.07 -5.017,9.777 -0.138,1.659 1.331,4.249 1.331,4.249 0,0 -2.026,0.638 -2.458,1.485 -0.695,1.362 0.484,3.875 -0.358,5.528 -4.7,9.223 -11.64,22.836 -16.228,31.843 -0.641,1.257 -2.363,1.737 -3.226,3.43 -0.796,1.562 -0.153,3.839 -0.153,3.839 0,0 -3.041,0.182 -4.096,2.253 -1.121,2.2 -0.461,5.17 -0.461,5.17 0,0 -1.923,0.246 -2.868,2.099 -1.009,1.981 0.7,3.02 0.259,3.891 -6.169,12.102 -13.434,26.368 -17.867,35.068 -1.631,3.199 -7.338,3.84 -10.65,10.341 -3.214,6.306 1.382,10.955 1.382,10.955 0,0 -4.772,0.432 -6.04,2.919 -1.292,2.535 -0.27,6.384 3.174,8.139 3.444,1.754 7.207,0.334 8.5,-2.201 1.267,-2.487 -1.281,-6.604 -1.281,-6.604 0,0 6.463,0.931 9.675,-5.376 3.313,-6.501 0.52,-11.441 2.15,-14.641 4.434,-8.7 11.7,-22.965 17.867,-35.068 0.445,-0.871 2.267,-0.117 3.276,-2.098 0.944,-1.853 0,-3.532 0,-3.532 0,0 2.822,-1.23 3.943,-3.431 1.056,-2.071 -0.563,-4.658 -0.563,-4.658 0,0 2.223,-0.792 3.02,-2.354 0.862,-1.693 0.228,-3.35 0.869,-4.609 4.59,-9.006 11.531,-22.62 16.229,-31.841 0.843,-1.655 3.555,-2.221 4.249,-3.585 0.432,-0.846 -0.255,-2.866 -0.255,-2.866 0,0 2.988,-0.296 4.248,-1.383 1.298,-1.118 -1.337,-3.516 4.967,-9.829 4.522,-4.528 11.817,-7.192 11.722,-9.01 -0.105,-2.01 -7.218,-10.187 -7.218,-10.187 0,0 3.001,-0.253 3.942,-2.098 0.941,-1.846 0.308,-3.994 0.308,-3.994 l 2.968,-0.512 0,-14.078 0,-0.001 0,0.001 0.001,0 z m -106.842,202.777 c -1.456,0.147 -2.366,1.01 -2.661,1.588 -0.448,0.877 -0.53,2.076 0,3.121 0,0 -3.583,-1.12 -4.812,-0.512 -1.158,0.573 0,17.458 0,17.458 0,0 14.295,-9.018 14.077,-10.29 -0.23,-1.352 -3.225,-3.635 -3.225,-3.635 1.158,-0.186 2.061,-0.912 2.509,-1.791 0.47,-0.925 0.533,-3.568 -2.714,-5.223 -1.216,-0.62 -2.299,-0.804 -3.175,-0.716 l 0,0 z" fill="#000"/>
	<path d="m 882.709,203.365 c -3.576,0 -8.841,0.098 -11.928,2.151 -2.825,1.875 -2.595,4.314 -3.584,5.17 -2.33,2.016 -6.321,1.945 -8.243,1.945 -12.44,0 -12.901,13.311 -12.901,13.311 0,0 3.181,-4.813 8.805,-4.813 9.351,0 16.433,5.094 16.433,7.013 0,0.777 -0.964,0.921 -1.023,0.921 -6.108,0 -15.326,-3.516 -20.223,-3.686 l 0,1.946 c 0.065,0.043 0.11,0.1 0.206,0.154 -0.07,-0.013 -0.137,-0.038 -0.206,-0.052 l 0,0.358 c 10.931,3.803 22.013,9.187 22.013,32.917 0,14.943 -1.789,30.19 -9.265,42.183 -2.648,4.247 -6.418,7.881 -10.955,11.11 -2.019,-0.61 -11.513,-3.56 -18.174,-7.269 -11.726,-6.532 -17.806,-13.031 -31.74,-13.669 0,-3.109 0,-10.598 0,-10.598 0,-5.662 2.049,-10.763 2.049,-16.177 -5.874,-1.575 -22.178,-21.51 -37.218,-30.358 -22.13,14.334 -39.265,37.865 -39.265,48.686 0,0 0.665,232.508 0,313.507 0,4.668 -2.815,11.263 -2.815,11.263 8.079,-3.418 22.888,-23.68 26.006,-31.382 0,1.422 0,3.687 0,3.687 12.201,-5.564 21.135,-20.184 25.136,-27.747 0.071,1.093 0.257,3.838 0.257,3.838 10.9,-9.555 24.776,-66.038 24.776,-66.038 l -0.716,-11.877 c 0,0 -9.597,46.116 -20.528,55.596 0,0 0,-184.431 0,-198.578 l 8.652,8.036 13.105,-12.235 0,-9.317 -11.621,10.852 0,-28.105 c 1.751,-2.649 2.912,-4.626 3.788,-6.194 1.881,3.279 7.96,13.329 15.101,19.505 1.175,-4.778 8.908,-9.318 8.908,-9.318 0,0 2.771,7.508 7.012,9.368 1.492,-2.628 10.394,-8.446 10.394,-8.446 0,0 -7.616,1.157 -10.7,4.045 -2.649,-0.593 -3.328,-11.058 -3.328,-11.058 0,0 -11.207,5.459 -13.156,9.368 -2.137,-0.578 -5.464,-8.988 -6.759,-12.44 1.955,-0.213 4.716,-0.46 8.345,-0.46 3.196,0 7.285,1.514 11.569,3.532 4.707,2.216 9.631,5.022 14.028,7.014 5.632,2.55 14.153,3.068 16.637,3.174 -2.845,2 -5.973,3.826 -9.367,5.529 0,0 13.411,-0.124 22.832,-4.813 3.361,-2.162 6.849,-4.316 9.829,-6.86 -1.293,3.593 -3.306,7.839 -6.452,11.467 13.836,-1.171 20.726,-9.072 22.679,-11.723 0.918,2.375 2.553,6.187 5.119,9.47 2.568,-3.283 4.252,-7.095 5.171,-9.47 1.956,2.651 8.843,10.552 22.678,11.723 -3.145,-3.628 -5.158,-7.874 -6.45,-11.467 2.979,2.543 6.469,4.698 9.829,6.86 9.42,4.689 22.833,4.813 22.833,4.813 -3.397,-1.703 -6.576,-3.534 -9.419,-5.529 2.391,-0.092 11.011,-0.603 16.689,-3.174 4.396,-1.992 9.32,-4.798 14.026,-7.014 4.285,-2.018 8.375,-3.532 11.571,-3.532 3.629,0 6.388,0.247 8.344,0.46 -1.295,3.453 -4.62,11.862 -6.758,12.44 -1.949,-3.909 -13.157,-9.368 -13.157,-9.368 0,0 -0.679,10.465 -3.327,11.058 -3.084,-2.888 -10.7,-4.045 -10.7,-4.045 0,0 8.9,5.818 10.392,8.446 4.242,-1.859 6.963,-9.368 6.963,-9.368 0,0 7.784,4.541 8.959,9.318 7.142,-6.177 13.219,-16.223 15.101,-19.505 0.909,1.618 2.123,3.674 3.788,6.194 l 0,28.105 -11.62,-10.852 0,9.317 13.105,12.235 8.652,-8.036 c 0,14.148 0,198.578 0,198.578 -10.933,-9.48 -20.528,-55.596 -20.528,-55.596 l -0.718,11.877 c 0,0 13.879,56.483 24.778,66.038 0,0 0.185,-2.744 0.256,-3.838 4,7.563 12.936,22.183 25.136,27.747 0,0 0,-2.266 0,-3.687 3.117,7.702 17.927,27.964 26.005,31.382 0,0 -2.815,-6.595 -2.815,-11.263 -0.665,-80.999 0,-313.507 0,-313.507 0,-10.822 -17.134,-34.351 -39.265,-48.686 -15.037,8.848 -31.343,28.784 -37.217,30.358 0,5.414 2.047,10.515 2.047,16.177 0,0 0,7.409 0,10.546 -13.904,0.652 -20.024,7.194 -31.739,13.72 -6.704,3.735 -16.3,6.695 -18.223,7.269 -4.535,-3.221 -8.258,-6.862 -10.904,-11.11 -6.372,-10.223 -9.061,-22.773 -9.061,-35.527 0,-5.391 6.04,-11.46 6.04,-15.82 0,-6.59 -0.614,-10.544 -0.614,-10.544 2.143,0.292 5.887,4.095 5.887,4.095 0,0 -0.129,-10.938 -3.585,-12.849 0,0 1.398,-1.438 6.451,-1.587 -1.42,-3.596 -8.446,-7.986 -8.446,-7.986 0.351,-0.629 1,-1.173 1.842,-1.638 1.765,-0.976 4.245,-1.62 6.142,-1.997 -2.022,-0.419 -4.352,-1.061 -6.91,-1.895 -5.842,-1.903 -12.719,-4.697 -19.146,-7.78 -11.732,-5.628 -20.669,-5.99 -25.597,-5.99 l 0,0.001 0,0 0.001,0 z m 0.256,3.225 c 1.087,0.01 2.096,0.052 2.968,0.052 11.458,0 19.517,5.224 30.359,10.033 2.841,1.26 5.45,2.281 7.779,3.071 -1.459,1.293 -2.594,2.592 -2.918,3.687 0,0 4.859,0.9 7.064,4.967 0,0 -4.62,0.524 -5.375,3.224 2.588,0.195 5.159,3.457 5.171,6.605 0,0 -6.553,-2.049 -6.553,-2.049 0,0 1.587,7.358 1.587,15.358 0,4.086 -5.886,8.894 -5.886,15.819 0,21.734 5.475,30.088 9.369,36.807 1.523,2.629 2.761,5.654 5.324,7.935 -11.218,-5.973 -19.556,-13.439 -19.556,-20.374 l 0,-26.262 -2.918,0 c 0,0 0,26.262 0,26.262 0,5.029 1.228,7.372 1.228,7.372 1.761,5.564 5.321,14.152 7.526,17.61 -10.321,-5.578 -15.564,-12.563 -15.564,-15.153 l 0,-36.092 -2.918,0 0,36.603 0.563,2.508 c -1.251,1.88 -2.877,4.106 -3.993,4.863 -1.113,-0.756 -2.69,-2.986 -3.943,-4.863 l 0.564,-2.508 0,-36.603 -2.918,0 0,36.092 c 0,2.589 -5.243,9.575 -15.563,15.153 2.205,-3.459 5.764,-12.046 7.524,-17.61 0,0 1.229,-2.342 1.229,-7.372 0,0 0,-26.262 0,-26.262 l -2.918,0 0,26.262 c 0,6.927 -8.307,14.405 -19.505,20.374 2.537,-2.283 3.757,-5.321 5.272,-7.935 4.258,-7.348 9.522,-16.683 9.522,-43.258 0,-9.974 -1.475,-16.755 -4.044,-21.501 -0.781,-1.566 -1.833,-5.734 4.146,-5.734 3.097,0 10.188,5.478 10.188,5.478 0,0 -0.292,-4.371 -3.891,-6.86 -0.597,-0.413 -1.586,-1.712 -1.586,-2.919 0,-0.904 1.551,-3.135 2.763,-3.686 0.833,-0.378 -12.183,-2.646 -12.183,-8.549 0,-1.229 0.773,-2.048 3.479,-2.048 3.545,0 9.312,4.249 14.438,4.249 3.789,0 5.283,-0.922 9.163,-0.922 4.742,0 14.635,8.979 18.019,8.651 -3.783,-2.375 -9.894,-11.365 -19.145,-11.365 -3.211,0 -6.117,0.717 -9.114,0.717 -3.841,0 -7.623,-3.533 -11.774,-3.533 -2.782,0 -5.889,0.155 -6.349,-0.564 -0.805,-1.255 -0.08,-1.983 0.666,-3.02 1.409,-1.957 5.366,-2.525 9.267,-2.661 1.17,-0.041 2.338,-0.061 3.429,-0.052 l 0,0.001 0.002,0 0.001,0 z m -116.208,39.418 c 0,0 0,0.05 0,0.05 0,0 20.565,18.843 27.491,21.245 0,0 0.255,6.348 0.255,6.348 l 0,18.687 c -5.019,-1.727 -11.326,-9.973 -14.384,-14.334 0,-1.224 0,-2.56 0,-2.56 0,-2.408 1.417,-4.167 2.457,-5.119 l -3.02,-1.074 c -1.152,1.313 -2.406,3.263 -2.406,5.784 0,0 0,0.982 0,1.485 l -0.972,1.025 -0.512,0.564 -7.525,8.087 -8.856,-13.413 c 0,-1.637 0,-3.276 0,-3.276 0,-2.208 1.698,-4.67 3.123,-6.348 l -2.97,-1.075 c -1.499,1.942 -3.072,4.559 -3.072,7.013 0,0 0,1.395 0,2.661 -2.083,2.156 -10.187,10.496 -10.187,10.496 0,0 -4.066,-8.737 -5.17,-11.109 6.205,-8.595 16.266,-18.219 25.75,-25.137 l 0,0 0,0 -0.001,0.001 z m 258.984,0 c 9.465,6.901 19.531,16.558 25.752,25.136 -1.104,2.371 -5.171,11.109 -5.171,11.109 0,0 -8.103,-8.34 -10.186,-10.495 0,-1.268 0,-2.662 0,-2.662 0,-2.454 -1.573,-5.071 -3.072,-7.013 l -2.969,1.075 c 1.425,1.677 3.123,4.139 3.123,6.348 0,0 0,1.64 0,3.276 l -8.858,13.413 -7.524,-8.087 -0.512,-0.564 -0.973,-1.024 c 0,-0.503 0,-1.486 0,-1.486 0,-2.521 -1.254,-4.472 -2.405,-5.784 l -3.022,1.074 c 1.042,0.953 2.458,2.71 2.458,5.12 0,0 0,1.334 0,2.56 -3.06,4.361 -9.365,12.606 -14.385,14.334 l 0,-18.687 c 0,0 0.256,-6.348 0.256,-6.348 6.925,-2.402 27.49,-21.245 27.49,-21.245 0,0 0,-0.051 0,-0.051 l -0.001,0 0,0 0,0 z m -288.318,30.869 4.711,8.549 0,15.411 -7.167,6.654 c 0,-3.126 0,-22.883 0,-22.883 0,-2.191 0.918,-4.831 2.457,-7.731 z m 317.653,0 c 1.542,2.9 2.457,5.54 2.457,7.731 0,0 0,19.722 0,22.883 l -7.167,-6.654 0,-15.411 4.71,-8.549 z m -298.863,1.946 8.241,12.541 0,9.522 -8.241,7.731 0,-29.794 0,0 0,-0.001 z m 280.076,0 0,29.794 -8.243,-7.73 0,-9.522 8.243,-12.541 0,0.001 0,-0.001 z m -282.996,2.252 0,27.491 -8.243,-7.679 0,-11.159 8.243,-8.651 0,0 0,-0.001 z m 285.913,0 8.243,8.651 0,11.159 -8.243,7.679 0,-27.491 0,0.001 z m -260.624,1.996 c 1.241,2.065 6.934,11.275 12.337,13.925 -1.914,2.705 -6.927,9.321 -12.337,12.236 l 0,-26.16 z m 235.334,0 0,26.16 c -5.409,-2.914 -10.421,-9.531 -12.337,-12.236 5.405,-2.649 11.097,-11.86 12.337,-13.925 z m -238.25,1.331 0,24.163 -8.243,-7.679 0,-8.549 8.243,-7.935 z m 241.17,0 8.243,7.935 0,8.549 -8.243,7.679 0,-24.163 z m -274.702,25.75 0,24.113 -7.167,-6.707 c 0,-2.549 0,-8.707 0,-10.7 l 7.167,-6.706 z m 308.233,0 7.167,6.706 c 0,2.015 0,8.122 0,10.7 l -7.167,6.707 0,-24.113 z m -305.316,0.053 4.711,4.402 3.533,3.276 0,8.651 -3.533,3.276 -4.711,4.402 0,-24.01 0,0.002 z m 19.402,0 0,24.01 -4.71,-4.403 -3.531,-3.328 0,-8.549 3.531,-3.328 4.71,-4.402 0,0 z m 2.97,0 8.243,7.73 0,8.549 -3.585,3.378 -4.658,4.352 0,-24.01 0,0 z m 19.402,0 0,24.06 -4.71,-4.402 -3.534,-3.329 0,-8.036 c 2.843,-1.735 5.702,-4.924 8.243,-8.294 l 0,0.001 0,0 0.001,0 z m 218.85,0 c 2.542,3.367 5.399,6.559 8.241,8.292 l 0,8.037 -3.531,3.328 -4.71,4.402 0,-24.06 0,0 0,0.001 z m 19.402,0 0,24.01 -4.659,-4.352 -3.583,-3.378 0,-8.549 8.243,-7.73 -0.001,0 z m 2.969,0 4.71,4.402 3.533,3.328 0,8.549 -3.533,3.328 -4.71,4.402 0,-24.01 0,0.001 0,0 0,0 z m 19.402,0 0,24.01 -4.711,-4.403 -3.532,-3.276 0,-8.651 3.532,-3.276 4.711,-4.403 0,0 0,0 0,0 z m -290.213,26.569 8.702,8.139 8.703,-8.089 0,198.631 c 0,0 0.607,9.856 1.024,16.279 -3.87,3.912 -18.429,18.634 -18.429,18.634 l 0,-233.595 0,0 z m 278.029,0 0,233.594 c 0,0 -14.558,-14.723 -18.43,-18.633 0.417,-6.424 1.023,-16.28 1.023,-16.28 l 0,-198.63 8.703,8.089 8.703,-8.14 0,0.001 0,0 0.001,0 z m -282.995,0.051 0,226.121 c 0,6.385 -11.659,21.273 -17.303,24.675 0,-5.713 0,-180.623 0,-250.745 l 8.6,8.036 8.703,-8.088 z m 287.96,0 8.703,8.088 8.601,-8.036 c 0,70.929 0,245.031 0,250.745 -5.642,-3.402 -17.304,-18.291 -17.304,-24.675 l 0,-226.121 z m -216.24,177.642 c 0,0 -8.361,16.975 -11.619,20.015 0,0 2.184,0.277 4.658,0.256 -1.522,2.188 -13.147,18.925 -16.791,25.238 -3.41,5.906 -5.816,3.277 -11.058,3.277 -4.347,0 -14.2,6.925 -15.818,9.727 -1.701,2.945 -2.968,6.523 -2.968,9.471 0,3.24 3.43,7.679 3.43,7.679 0.369,-1.551 1.023,-2.099 1.023,-2.099 0,0 9.013,11.228 10.341,12.695 1.034,1.143 5.645,1.886 7.27,0.411 4.066,-3.697 8.002,-6.282 11.621,-11.621 1.863,-2.751 2.005,-5.904 4.146,-8.858 7.162,-9.88 21.415,-28.799 24.675,-33.121 0.218,1.203 0.405,2.205 0.612,3.43 3.694,-7.457 21.451,-21.706 21.451,-21.706 l -4.915,-3.226 c 0,0 -10.704,12.479 -14.18,14.796 0,0 -1.485,-6.206 -2.355,-8.396 0,0 -4.101,3.102 -6.346,3.176 0,0 -0.671,-4.212 -1.178,-6.964 -2.825,1.883 -7.525,1.485 -7.525,1.485 4.127,-1.954 9.01,-13.925 9.01,-13.925 l -3.48,-1.741 -0.002,0.002 0,0 z m 144.518,0 -3.481,1.74 c 0,0 4.884,11.971 9.01,13.925 0,0 -4.701,0.399 -7.525,-1.484 -0.506,2.751 -1.178,6.963 -1.178,6.963 -2.244,-0.073 -6.348,-3.175 -6.348,-3.175 -0.869,2.189 -2.355,8.396 -2.355,8.396 -3.474,-2.317 -14.18,-14.797 -14.18,-14.797 l -4.914,3.225 c 0,0 17.756,14.249 21.449,21.708 0.209,-1.225 0.396,-2.227 0.614,-3.43 3.259,4.322 17.512,23.242 24.675,33.121 2.141,2.954 2.282,6.107 4.147,8.857 3.617,5.339 7.554,7.924 11.621,11.621 1.623,1.476 6.235,0.733 7.269,-0.41 1.328,-1.468 10.341,-12.695 10.341,-12.695 0,0 0.654,0.548 1.024,2.098 0,0 3.43,-4.439 3.43,-7.679 0,-2.948 -1.27,-6.525 -2.969,-9.47 -1.618,-2.803 -11.471,-9.728 -15.818,-9.728 -5.242,0 -7.648,2.63 -11.057,-3.276 -3.645,-6.313 -15.271,-23.05 -16.792,-25.238 2.475,0.022 4.658,-0.256 4.658,-0.256 -3.258,-3.041 -11.621,-20.017 -11.621,-20.017 l 0,0 0.001,0 0,0 z m -145.696,19.146 c 0,0 -0.068,5.753 1.742,7.782 0,0 6.348,-4.352 6.348,-4.352 0,0 0.423,2.1 0.972,4.967 -2.718,3.716 -18.331,25.024 -26.057,35.425 -1.921,2.584 -3.534,9.163 -3.534,9.163 0,0 -2.814,-1.331 -2.814,-3.736 0,-2.362 0.308,-5.171 0.308,-5.171 0,0 -2.101,2.406 -5.735,2.406 0,-2.903 5.614,-6.052 5.836,-10.186 -4.281,3.174 -7.999,1.545 -12.951,3.072 -5.393,1.661 -6.895,3.927 -8.549,3.84 -0.974,-0.053 -1.856,-1.733 -1.484,-2.765 0.644,-1.787 7.314,-6.733 11.977,-7.627 1.117,-0.214 9.903,1.912 11.673,-0.819 7.292,-11.252 19.13,-29.518 20.272,-31.278 0.752,-0.18 1.444,-0.371 1.995,-0.717 l 0,-0.001 0.001,0 0,0 z m 146.873,0 c 0.554,0.347 1.245,0.538 1.997,0.717 1.143,1.76 12.98,20.026 20.272,31.278 1.77,2.732 10.555,0.605 11.671,0.819 4.666,0.896 11.335,5.842 11.98,7.627 0.372,1.032 -0.51,2.712 -1.485,2.765 -1.653,0.087 -3.155,-2.178 -8.549,-3.84 -4.953,-1.527 -8.669,0.102 -12.951,-3.072 0.221,4.133 5.836,7.284 5.836,10.187 -3.632,0 -5.734,-2.406 -5.734,-2.406 0,0 0.307,2.808 0.307,5.17 0,2.405 -2.815,3.737 -2.815,3.737 0,0 -1.613,-6.58 -3.533,-9.165 -7.726,-10.399 -23.339,-31.708 -26.056,-35.425 0.55,-2.865 0.972,-4.967 0.972,-4.967 0,0 6.347,4.352 6.347,4.352 1.811,-2.028 1.741,-7.782 1.741,-7.782 l 0,0.001 0,0.001 0,0 z m -96.139,4.198 c 0,0 -34.687,79.735 -65.476,91.995 0,0 13.395,5.691 29.845,14.232 2.4,1.246 4.871,2.584 7.372,3.943 2.071,-2.494 4.251,-5.265 6.399,-8.141 9.836,-13.16 19.455,-28.412 19.455,-28.412 0.67,3.961 -4.524,16.194 -13.31,31.281 -1.728,2.964 -3.53,6.064 -5.529,9.213 2.229,1.273 4.441,2.559 6.655,3.892 16.295,9.805 31.598,21.077 37.267,31.432 5.671,-10.355 20.974,-21.626 37.27,-31.432 2.213,-1.333 4.425,-2.619 6.654,-3.892 -1.999,-3.149 -3.801,-6.247 -5.528,-9.213 -8.787,-15.087 -13.98,-27.32 -13.31,-31.281 0,0 9.619,15.252 19.455,28.412 2.147,2.875 4.328,5.647 6.398,8.141 2.499,-1.358 4.973,-2.696 7.372,-3.943 16.451,-8.542 29.843,-14.232 29.843,-14.232 -30.787,-12.258 -65.476,-91.995 -65.476,-91.995 l -5.118,1.484 c 0,0 27.667,68.899 54.725,89.742 -6.153,1.852 -13.355,4.511 -20.785,7.68 -9.028,-10.576 -18.367,-24.842 -25.954,-37.526 -8.191,-13.695 -14.897,-37.729 -14.897,-37.729 -3.798,9.225 4.296,55.562 20.631,84.88 -13.509,7.031 -25.529,14.651 -31.28,20.886 -5.749,-6.236 -17.769,-13.855 -31.278,-20.886 16.334,-29.316 24.428,-75.655 20.63,-84.88 0,0 -6.705,24.033 -14.898,37.729 -7.586,12.684 -16.925,26.95 -25.954,37.526 -7.428,-3.169 -14.631,-5.828 -20.785,-7.68 27.058,-20.843 54.726,-89.742 54.726,-89.742 l -5.119,-1.484 -0.001,0 z M 782.935,576.104 c 0.238,0.026 0.488,0.153 0.666,0.358 0.353,0.408 0.322,1.006 -0.053,1.33 l -2.866,2.508 c -0.375,0.324 -0.977,0.255 -1.33,-0.154 -0.354,-0.408 -0.324,-1.006 0.052,-1.331 l 2.866,-2.508 c 0.187,-0.163 0.428,-0.233 0.666,-0.205 l 0,0.002 z m 226.631,0 c 0.238,-0.029 0.479,0.041 0.667,0.204 l 2.866,2.508 c 0.374,0.325 0.406,0.924 0.051,1.331 -0.355,0.409 -0.957,0.478 -1.33,0.154 l -2.868,-2.509 c -0.375,-0.324 -0.406,-0.922 -0.051,-1.33 0.178,-0.204 0.428,-0.331 0.666,-0.358 l -0.001,0 0.001,0 0,0 z m -223.611,2.508 c 0.712,-0.058 1.46,0.254 1.997,0.87 0.857,0.988 0.802,2.388 -0.103,3.175 l -6.962,6.091 c -0.906,0.788 -2.367,0.63 -3.226,-0.357 -0.857,-0.988 -0.803,-2.439 0.103,-3.225 l 6.962,-6.041 c 0.339,-0.296 0.802,-0.477 1.229,-0.512 l 0,0 0,0 z m 220.028,0 c 0.18,-0.03 0.384,-0.015 0.563,0 0.429,0.035 0.888,0.216 1.229,0.511 l 6.963,6.041 c 0.905,0.786 0.96,2.238 0.102,3.226 -0.858,0.986 -2.32,1.145 -3.225,0.356 l -6.963,-6.091 c -0.905,-0.786 -0.96,-2.185 -0.101,-3.175 0.402,-0.462 0.896,-0.778 1.433,-0.87 l 0,0 0,0.001 z m -216.086,4.71 c 0.711,-0.058 1.51,0.252 2.047,0.87 0.857,0.988 0.803,2.387 -0.103,3.174 l -7.012,6.092 c -0.906,0.787 -2.316,0.63 -3.175,-0.358 -0.858,-0.987 -0.803,-2.438 0.104,-3.224 l 6.961,-6.041 c 0.339,-0.295 0.75,-0.476 1.178,-0.512 l 0.001,0 0,0 0,0 z m 212.144,0 c 0.184,-0.031 0.384,-0.014 0.563,0 0.428,0.035 0.837,0.217 1.177,0.512 l 6.963,6.041 c 0.906,0.786 0.962,2.237 0.101,3.224 -0.856,0.988 -2.268,1.145 -3.174,0.358 l -7.012,-6.093 c -0.906,-0.786 -0.961,-2.185 -0.103,-3.173 0.403,-0.462 0.936,-0.778 1.486,-0.871 l 0,0.001 z m -207.691,4.607 c 0.713,-0.058 1.461,0.201 1.997,0.819 0.858,0.988 0.803,2.439 -0.102,3.225 l -6.963,6.042 c -0.906,0.787 -2.316,0.629 -3.174,-0.359 -0.858,-0.988 -0.854,-2.388 0.051,-3.175 l 7.014,-6.091 c 0.338,-0.296 0.749,-0.427 1.177,-0.461 l 0,0 z m 203.237,0 c 0.179,-0.027 0.385,-0.014 0.563,0 0.429,0.035 0.838,0.166 1.177,0.461 l 7.015,6.091 c 0.906,0.786 0.908,2.187 0.05,3.175 -0.858,0.988 -2.269,1.146 -3.174,0.359 l -6.963,-6.042 c -0.907,-0.786 -0.96,-2.237 -0.102,-3.225 0.403,-0.462 0.898,-0.741 1.434,-0.819 z" fill="#000"/>
	<path d="m 1098.025,397.796 -6.656,4.71 3.378,1.742 3.379,1.689 -0.101,-8.14 0,0 0,0 0,0 z m -6.452,7.833 c -1.207,0.083 -2.272,0.727 -2.815,1.792 -0.868,1.704 -0.025,3.886 1.894,4.863 1.92,0.977 4.148,0.373 5.018,-1.33 0.868,-1.704 0.023,-3.885 -1.895,-4.863 -0.72,-0.367 -1.476,-0.511 -2.201,-0.461 l 0,0 -0.001,0 z m -12.542,7.833 c -1.002,0.012 -1.729,0.047 -1.894,0.154 -0.711,0.46 0.256,6.545 0.051,11.722 -0.194,4.882 -1.756,6.257 -2.611,7.935 -0.789,1.549 -3.634,3.379 -3.634,3.379 0,0 2.354,2.355 2.354,2.355 0,0 1.532,-2.386 3.942,-7.118 2.843,-5.579 2.751,-15.688 3.585,-16.227 0.725,-0.469 6.655,-1.946 6.655,-1.946 -0.001,0 -5.442,-0.294 -8.446,-0.255 l -0.001,0 0,0 -0.001,0 z m 10.34,1.382 c 0,0 -6.235,1.196 -7.117,2.049 -0.852,0.823 -0.476,9.267 -3.788,15.767 -2.744,5.388 -4.094,7.372 -4.094,7.372 l 1.689,0.87 1.69,0.819 c 0,0 0.787,-2.188 3.533,-7.577 3.311,-6.499 10.379,-11.213 10.544,-12.389 0.172,-1.212 -2.456,-6.91 -2.456,-6.91 l 0,-0.001 0,0 0,0 z m 1.997,0.819 c 0,0 2.257,5.692 2.304,6.553 0.052,0.989 -8.163,6.861 -11.007,12.439 -2.41,4.731 -3.43,7.373 -3.43,7.373 0,0 3.277,0.512 3.277,0.512 0,0 -0.226,-3.367 0.563,-4.915 0.854,-1.677 1.079,-3.731 4.915,-6.757 4.068,-3.209 9.567,-6.014 9.522,-6.861 -0.041,-0.782 -6.143,-8.344 -6.143,-8.344 l -0.001,0 0,0 0,0 z m -18.531,26.826 c -1.033,0.111 -1.784,0.767 -2.201,1.586 -0.622,1.222 -0.285,2.855 -5.223,12.544 -2.164,4.247 -3.036,5.956 -5.376,10.545 -2.378,4.67 -5.836,11.416 -5.836,11.416 0,0 -1.175,2.156 1.024,3.276 2.199,1.119 3.174,-1.127 3.174,-1.127 0,0 3.458,-6.747 5.836,-11.416 2.34,-4.589 3.212,-6.349 5.376,-10.597 4.936,-9.688 6.444,-10.348 7.065,-11.569 0.669,-1.312 0.509,-3.078 -1.689,-4.199 -0.824,-0.419 -1.531,-0.526 -2.149,-0.459 l 0,-0.001 -0.001,0.001 z m -21.246,40.392 c -0.829,0.072 -1.485,0.424 -1.791,1.023 -0.611,1.201 0.436,2.964 2.355,3.943 1.919,0.976 3.996,0.791 4.607,-0.41 0.611,-1.2 -0.486,-2.964 -2.406,-3.943 -0.959,-0.489 -1.935,-0.687 -2.764,-0.613 l -0.001,0 0,0 z m -2.866,5.886 c -1.375,-0.065 -2.577,0.411 -3.072,1.382 -0.792,1.553 0.443,3.783 2.765,4.968 2.322,1.183 4.84,0.886 5.631,-0.667 0.792,-1.554 -0.444,-3.782 -2.765,-4.967 -0.871,-0.442 -1.733,-0.677 -2.56,-0.716 z m -3.891,7.321 c -0.828,0.073 -1.485,0.424 -1.792,1.025 -0.611,1.199 0.437,2.963 2.355,3.941 1.919,0.978 3.995,0.791 4.608,-0.409 0.611,-1.2 -0.437,-2.964 -2.355,-3.942 -0.96,-0.49 -1.986,-0.688 -2.815,-0.615 l 0,0 z m -1.689,6.298 c -1.212,0.156 -1.793,1.382 -1.793,1.382 0,0 -12.448,24.5 -16.84,33.121 -1.404,2.754 -7.312,4.47 -9.625,9.011 -2.33,4.568 -0.686,8.844 2.354,10.392 3.039,1.549 7.502,0.423 9.83,-4.146 2.313,-4.54 0.235,-10.353 1.637,-13.106 4.393,-8.624 16.843,-33.122 16.843,-33.122 0,0 1.226,-2.156 -0.973,-3.276 -0.55,-0.28 -1.028,-0.308 -1.433,-0.255 l -0.001,0 0,0 z m -30.051,56.414 c -1.399,0.039 -2.643,0.699 -3.225,1.842 -0.933,1.83 0.134,4.269 2.405,5.426 2.272,1.158 4.904,0.601 5.837,-1.228 0.933,-1.83 -0.186,-4.27 -2.457,-5.427 -0.852,-0.435 -1.721,-0.637 -2.56,-0.614 l 0,0.001 0,0 z m -19.812,39.265 c -0.71,0.024 -1.298,0.249 -1.535,0.717 -0.477,0.935 0.508,2.413 2.201,3.276 1.693,0.862 3.464,0.782 3.942,-0.154 0.477,-0.937 -0.51,-2.414 -2.201,-3.276 -0.847,-0.432 -1.695,-0.588 -2.407,-0.564 l 0,0 0,0 z m -5.836,4.606 0,12.082 9.83,-7.065 c 0,0 -1.333,-2.354 -4.25,-3.84 -2.917,-1.485 -5.58,-1.178 -5.58,-1.178 z" fill="#f5d402"/>
	<path d="m 746.386,532.597 c 0,0 5.554,11.472 9.775,13.045 -2.183,-0.595 -9.271,2.006 -9.271,2.006 0,0 12.499,11.165 23.1,11.898 8.99,0.619 13.355,-3.868 13.355,-3.868 l -1.801,-9.524 c 0,0 -5.5,-6.642 -14.302,-9.707 -8.894,-3.098 -20.857,-3.848 -20.857,-3.848 l 0,-0.001 0,0 z" fill="#000"/>
	<path d="m 788.258,512.05 c 0,0 -7.669,6.565 -9.768,14.169 -2.1,7.605 1.368,16.247 1.368,16.247 l 6.444,12.021 c 0,0 8.931,-4.753 12.73,-11.86 3.799,-7.108 2.406,-16.698 2.406,-16.698 0,0 -7.075,2.634 -7.975,3.8 1.493,-7.884 -5.206,-17.679 -5.206,-17.679 l -0.001,0 0.001,0 0,0 z" fill="#000"/>
	<path d="m 763.614,508.975 c 0,0 -8.722,2.948 -17.192,2.438 -8.068,-0.487 -14.777,-7.262 -14.777,-7.262 0,0 6.688,-4.526 9.989,-3.923 -3.631,-1.327 -8.896,-10.423 -8.896,-10.423 0,0 7.482,-2.261 14.116,0.24 6.634,2.503 12.419,9.77 12.419,9.77 l 4.342,9.16 -0.001,0 z" fill="#000"/>
	<path d="m 766.613,466.379 c 0,0 4.362,9.032 3.328,12.171 1.353,-2.09 6.474,-5.345 6.474,-5.345 0,0 3.096,14.624 0.135,23.656 -2.96,9.031 -11.974,12.47 -11.974,12.47 l -9.943,-19.337 c 0,0 -1.48,-7.164 1.62,-12.837 3.101,-5.673 10.36,-10.779 10.36,-10.779 l 0.001,0 z" fill="#000"/>
	<path d="m 709.856,442.471 c 0,0 9.427,-0.99 18.051,2.583 7.21,2.993 9.42,8.433 9.42,8.433 l 3.551,9.52 c 0,0 -10.261,3.848 -18.368,0.906 -8.108,-2.945 -14.065,-12.68 -14.065,-12.68 0,0 5.666,-2.149 7.823,-1.343 -3.142,-1.39 -6.41,-7.419 -6.41,-7.419 l 0,0.001 -0.001,0 0,0 z" fill="#000"/>
	<path d="m 739.511,424.795 c 0,0 4.137,5.313 4.261,11.424 1.103,-3.249 6.268,-6.84 6.268,-6.84 0,0 5.312,12.855 4.146,21.982 -1.166,9.128 -8.809,14.527 -8.809,14.527 l -9.531,-18.092 c 0,0 -3.106,-7.415 -2.191,-13.167 0.916,-5.75 5.856,-9.836 5.856,-9.836 l 0,0.002 z" fill="#000"/>
	<path d="m 706.862,390.196 c 0,0 -1.709,9.854 1.199,15.53 2.598,5.065 4.252,6.176 4.252,6.176 -4.954,-3.269 -12.444,-3.551 -12.444,-3.551 0,0 2.666,10.721 9.037,15.612 6.371,4.891 16.195,3.748 16.195,3.748 0,0 6.46,-8.6 6.01,-17.865 -0.449,-9.265 -7.808,-19.197 -7.808,-19.197 0,0 -2.902,6.02 -3.158,10.514 -1.878,-4.633 -13.285,-10.966 -13.285,-10.966 l 0,0 0,0 0,-0.001 z" fill="#000"/>
	<path d="m 709.76,396.194 c 0,0 -0.255,7.201 2.127,11.285 2.383,4.086 7.704,5.715 7.704,5.715 0,0 0.254,-7.199 -2.128,-11.283 -2.383,-4.086 -7.703,-5.717 -7.703,-5.717 z" fill="#097754"/>
	<path d="m 704.778,412.477 c 0,0 6.255,0.368 9.868,3.136 3.61,2.768 5.009,8.535 5.009,8.535 0,0 -4.146,0.421 -7.756,-2.347 -3.611,-2.769 -7.121,-9.324 -7.121,-9.324 l 0,0 z" fill="#097754"/>
	<path d="m 724.406,397.945 c 0,0 -2.08,4.77 -1.84,9.912 0.239,5.143 3.24,10.937 3.24,10.937 0,0 2.713,-6.174 2.474,-11.318 -0.238,-5.143 -3.147,-8.075 -3.874,-9.531 z" fill="#097754"/>
	<path d="m 713.875,444.298 c 0,0 3.071,4.288 7.799,6.626 4.728,2.337 11.773,2.424 11.773,2.424 0,0 -3.516,-4.562 -8.245,-6.9 -4.728,-2.337 -11.327,-2.152 -11.327,-2.152 l 0,0.002 0,0 0,0 z" fill="#097754"/>
	<path d="m 715.4,454.265 c 0,0 2.257,4.421 6.384,6.316 4.129,1.896 12.574,1.74 12.574,1.74 0,0 -3.24,-4.131 -7.368,-6.027 -4.128,-1.897 -11.591,-2.029 -11.591,-2.029 l 0,0 z" fill="#097754"/>
	<path d="m 739.172,430.68 c 0,0 -2.495,4.123 -2.251,8.666 0.245,4.545 3.227,9.511 3.227,9.511 0,0 2.097,-5.693 1.852,-10.237 -0.244,-4.545 -2.829,-7.94 -2.829,-7.94 l 0,0 z" fill="#097754"/>
	<path d="m 748.361,436.51 c 0,0 -4.269,5.73 -4.882,11.621 -0.613,5.89 2.428,11.942 2.428,11.942 0,0 5.157,-5.178 5.77,-11.068 0.613,-5.892 -3.316,-12.493 -3.316,-12.493 l 0,-0.002 z" fill="#097754"/>
	<path d="m 736.587,490.911 c 0,0 0.513,2.118 2.297,4.367 1.783,2.251 4.836,4.632 4.836,4.632 0,0 2.949,-0.948 6.615,-0.155 3.665,0.795 8.54,4.06 8.54,4.06 0,0 -5.247,-7.831 -10.695,-10.876 -5.448,-3.043 -11.591,-2.029 -11.591,-2.029 l -0.001,0 z" fill="#097754"/>
	<path d="m 736.046,504.37 c 0,0 6.793,-2.902 12.387,-2.153 5.595,0.749 10.639,5.171 10.639,5.171 0,0 -7.561,2.616 -13.155,1.868 -5.596,-0.749 -9.872,-4.886 -9.872,-4.886 l 0.001,-0.001 0,0.001 z" fill="#097754"/>
	<path d="m 764.765,472.794 c 0,0 -6.007,6.364 -6.511,11.887 -0.503,5.522 4.871,10.669 4.871,10.669 0,0 -0.264,-3.542 0.661,-5.874 0.926,-2.332 2.893,-4.822 2.893,-4.822 0,0 0.838,-2.843 0.514,-5.123 -0.453,-3.186 -2.428,-6.737 -2.428,-6.737 z" fill="#097754"/>
	<path d="m 773.382,480.162 c 0,0 -5.662,5.729 -7.158,11.864 -1.497,6.135 1.17,12.676 1.17,12.676 0,0 5.149,-4.062 6.646,-10.196 1.497,-6.135 -0.659,-14.344 -0.659,-14.344 l 0.001,0 z" fill="#097754"/>
	<path d="m 787.558,517.144 c 0,0 2.565,5.355 3.215,9.833 0.652,4.477 0.048,6.027 0.048,6.027 0,0 -2.652,2.607 -3.841,4.14 -1.528,1.97 -1.752,5.576 -1.752,5.576 0,0 -5.325,-7.916 -4.504,-13.703 0.82,-5.786 6.834,-11.874 6.834,-11.874 l 0,0 0,0.001 0,0 z" fill="#097754"/>
	<path d="m 798.784,529.529 c 0,0 -6.818,4.503 -9.523,9.123 -2.708,4.617 -1.304,9.349 -1.304,9.349 0,0 4.858,-0.428 7.566,-5.046 2.706,-4.618 3.26,-13.427 3.26,-13.427 l 0.001,0 0,0.001 0,0 z" fill="#097754"/>
	<path d="m 753.985,548.547 c 0,0 9.826,-0.268 15.832,1.209 6.006,1.475 8.192,4.695 8.192,4.695 0,0 -6.753,3.162 -12.759,1.686 -6.006,-1.475 -11.266,-7.591 -11.266,-7.591 l 0,0 0,0.001 z" fill="#097754"/>
	<path d="m 752.324,536.89 c 0,0 4.433,6.873 10.164,9.367 7.898,3.435 17.043,1.77 17.043,1.77 0,0 -4.968,-6.089 -11.804,-8.777 -6.838,-2.687 -15.403,-2.359 -15.403,-2.359 l 0.001,0 -0.001,0 z" fill="#097754"/>
	<path d="m 783.86,555.274 0.265,3.537 c 5.875,0.055 6.75,-0.53 8.256,1.322 1.003,1.234 3.389,2.311 5.787,1.215 2.4,-1.095 3.475,-3.977 2.38,-6.376 -1.095,-2.399 -3.326,-2.92 -5.475,-2.496 -1.319,0.26 -2.187,1.313 -3.306,1.891 -2.128,1.102 -7.909,0.908 -7.909,0.908 l 0,0 0.001,0 z" fill="#000"/>
	<path d="m 783.353,552.568 2.859,2.095 c -3.067,5.014 -4.024,5.446 -3.251,7.705 0.515,1.504 0.166,4.097 -2.035,5.553 -2.2,1.455 -5.214,0.841 -6.669,-1.358 -1.454,-2.2 -0.715,-4.366 0.783,-5.965 0.92,-0.982 2.27,-1.16 3.353,-1.803 2.062,-1.223 4.959,-6.228 4.959,-6.228 l 0,0 0.001,0 z" fill="#000"/>
	<path d="m 763.451,510.567 0.264,3.537 c 5.876,0.054 6.75,-0.53 8.256,1.321 1.002,1.233 3.389,2.311 5.787,1.215 2.401,-1.095 3.476,-3.976 2.379,-6.375 -1.095,-2.4 -3.325,-2.92 -5.474,-2.496 -1.32,0.261 -2.187,1.313 -3.305,1.891 -2.129,1.101 -7.909,0.908 -7.909,0.908 l 0.001,0 z" fill="#000"/>
	<path d="m 764.643,511.823 2.5,2.517 c -3.809,4.474 -4.824,4.753 -4.411,7.104 0.276,1.567 -0.473,4.075 -2.874,5.17 -2.399,1.095 -5.279,0.021 -6.376,-2.379 -1.095,-2.399 -0.028,-4.425 1.701,-5.771 1.061,-0.825 2.425,-0.793 3.593,-1.258 2.227,-0.887 5.867,-5.382 5.867,-5.382 l -0.001,0 0.001,0 z" fill="#000"/>
	<path d="m 743.672,468.723 0.265,3.537 c 5.876,0.054 6.75,-0.53 8.257,1.323 1.003,1.231 3.388,2.309 5.788,1.213 2.398,-1.095 3.474,-3.975 2.379,-6.377 -1.097,-2.399 -3.326,-2.919 -5.476,-2.495 -1.32,0.261 -2.187,1.313 -3.306,1.891 -2.128,1.102 -7.908,0.907 -7.908,0.907 l 0,0.002 0,0 z" fill="#000"/>
	<path d="m 745.302,467.979 2.499,2.516 c -3.809,4.475 -4.822,4.754 -4.411,7.105 0.276,1.566 -0.473,4.074 -2.873,5.169 -2.399,1.094 -5.28,0.02 -6.376,-2.379 -1.094,-2.4 -0.027,-4.426 1.701,-5.771 1.061,-0.827 2.424,-0.793 3.594,-1.26 2.227,-0.887 5.866,-5.38 5.866,-5.38 l 0,0.001 z" fill="#000"/>
	<path d="m 722.603,424.542 0.264,3.536 c 5.876,0.055 6.751,-0.53 8.256,1.321 1.004,1.234 3.39,2.311 5.788,1.217 2.4,-1.097 3.475,-3.977 2.38,-6.377 -1.095,-2.4 -3.326,-2.921 -5.476,-2.496 -1.318,0.261 -2.186,1.314 -3.305,1.891 -2.128,1.101 -7.909,0.908 -7.909,0.908 l 0,0.001 0.001,0 z" fill="#000"/>
	<path d="m 724.232,423.798 2.498,2.517 c -3.808,4.475 -4.823,4.753 -4.41,7.105 0.276,1.566 -0.474,4.074 -2.873,5.169 -2.4,1.095 -5.28,0.021 -6.375,-2.379 -1.096,-2.399 -0.028,-4.427 1.699,-5.771 1.062,-0.825 2.425,-0.793 3.594,-1.26 2.226,-0.886 5.866,-5.38 5.866,-5.38 l 0,-0.001 0,0.001 0.001,0 z" fill="#000"/>
	<path d="m 759.718,500.09 c -2.106,0.874 -5.23,-8.295 -7.524,-13.318 -2.353,-5.155 -7.131,-13.1 -5.774,-13.72 1.489,-0.68 3.451,3.492 5.859,8.767 2.408,5.273 9.412,17.449 7.439,18.269 l 0,0.002 0.001,0 z" fill="#f5d402"/>
	<path d="m 738.092,451.797 c -2.105,0.877 -4.41,-5.127 -6.703,-10.151 -2.353,-5.154 -4.645,-8.795 -3.288,-9.415 1.49,-0.68 3.69,3.837 5.616,8.055 1.866,4.088 6.348,10.69 4.374,11.512 z" fill="#f5d402"/>
	<path d="m 788.134,561.29 c -1.653,0.442 -8.869,-14.662 -14.703,-27.442 -5.833,-12.779 -10.177,-23.119 -8.82,-23.736 1.49,-0.681 6.213,11.391 12.049,24.172 5.835,12.781 12.713,26.673 11.475,27.006 l -0.001,0 0,0 z" fill="#f5d402"/>
	<path d="m 848.732,220.688 c 0,0 2.419,-4.581 8.534,-4.581 2.556,0 10.992,-0.177 10.992,-0.177 1.124,2.921 6.249,7.802 6.249,12.878 0,0 -5.202,-9.377 -19.723,-9.377 -3.649,0 -6.054,1.256 -6.054,1.256 l 0.001,0 z" fill="#cc092f"/>
	<path d="m 867.439,221.971 c 0,0 -3.568,-1.144 -3.568,-2.342 0,-1.526 1.733,-1.526 2.769,-0.337 0.713,0.819 0.798,2.68 0.798,2.68 l 0.001,0 z" fill="#000"/>
	<path d="m 872.337,230.604 c 0,0 -3.093,3.258 -3.765,4.997 -3.061,-1.16 -8.399,-6.661 -8.399,-6.661 0,0 4.525,2.642 12.163,1.664 l 0,0 0.001,0 z" fill="#d10429"/>
	<path d="m 887.911,222.057 a 5.112,4.043 0 1 1 -10.224,0 5.112,4.043 0 1 1 10.224,0 z" fill="#000"/>
	<path d="m 886.36,222.057 a 3.56,3.56 0 1 1 -7.121,0 3.56,3.56 0 1 1 7.121,0 z" fill="#f5d402"/>
	<path d="m 884.31,222.057 a 1.511,1.511 0 1 1 -3.021,0 1.511,1.511 0 1 1 3.021,0 z" fill="#000"/>
	<path d="m 790.1,320.444 c 0,0 8.703,6.53 8.703,13.157 l 0,137.198 0,20.786 c 0,4.162 1.286,6.872 3.328,9.521 2.041,2.853 6.39,6.795 10.903,9.727 13.94,9.053 37.246,18.599 54.88,26.621 14.694,6.684 20.671,9.381 28.309,18.839 7.639,-9.458 13.667,-12.154 28.361,-18.839 17.631,-8.021 40.938,-17.568 54.879,-26.621 4.515,-2.932 8.864,-6.873 10.904,-9.727 2.042,-2.649 3.276,-5.359 3.276,-9.521 l 0,-20.786 0,-137.198 c 0,-6.626 8.703,-13.157 8.703,-13.157 l -9.266,0 -5.426,0 -91.432,0 -91.429,0 -5.427,0 -9.266,0 0.001,0 0.001,0 z m 11.159,5.017 3.533,0 91.431,0 91.431,0 3.533,0 c 0,0 -2.56,3.081 -2.56,8.139 l 0,137.198 c 0,0 0,20.786 0,20.786 0,3.448 -3.578,11.525 -24.214,21.807 -34.112,16.997 -60.331,24.934 -68.189,34.607 -7.859,-9.673 -34.078,-17.609 -68.189,-34.607 -20.637,-10.282 -24.215,-18.359 -24.215,-21.807 0,0 0,-20.786 0,-20.786 l 0,-137.198 c 0,-5.059 -2.56,-8.139 -2.56,-8.139 l 0,0 -0.001,0 z" fill="#f5d402"/>
</svg>