<?xml version="1.0" encoding="UTF-8"?>
<!DOCTYPE svg PUBLIC "-//W3C//DTD SVG 1.1//EN" "http://www.w3.org/Graphics/SVG/1.1/DTD/svg11.dtd">
<svg xmlns="http://www.w3.org/2000/svg" xmlns:xlink="http://www.w3.org/1999/xlink" version="1.1" width="1200" height="600" viewBox="0 0 12 6">
<title>Flag of Slovenia</title>
<rect width="12" height="6" fill="#ed1c24"/>
<rect width="12" height="4" fill="#005da4"/>
<rect width="12" height="2" fill="#fff"/>
<g transform="translate(2.22378,1) scale(0.12937)" stroke="none">
	<svg width="12" height="15.4594" viewBox="-120 -190.223125 240 309.188274">
<!-- R0 = 15*sqrt(349) ~ 280.223125  Py= 15*sqrt(285)-90 ~ 163.229145242 -->
		<path d="M 110.2575,-19.4777 L 120,-163.22914 A 280.2231,280.2231 0 0 0 -120,-163.22914 L -110.2575,-19.4777 A 155.6137 155.6137 0 0 0 0,118.965149 A 155.6137 155.6137  0 0 0 110.2575,-19.4777" fill="#005da4"/>
<!-- 30*sqrt(81/4+1) , 30*sqrt(19)-30  -->
		<path d="M -90,0 A 138.2932 138.2932 0 0 0 0,100.766968 A 138.2932 138.2932  0 0 0 90,0 L 45,-60 L 27,-36 L 0,-90 L -27,-36 L -45,-60 L -90,0" fill="#fff"/>
		<g id="wave" transform="scale(5) translate(0,5.19615)" fill="#005da4">
			<path d="M -17.19615,-2.19615 a 6,6 0 0 0 8.19615,2.19615 a 6,6 0 0 1 6,0 a 6,6 0 0 0 6,0 a 6,6 0 0 1 6,0 a 6,6 0 0 0 8.19615,-2.19615 l 0,1.73205 a 6,6 0 0 1 -8.19615,2.19615 a 6,6 0 0 0 -6,0 a 6,6 0 0 1 -6,0 a 6,6 0 0 0 -6,0 a 6,6 0 0 1 -8.19615,-2.19615 z" />
		</g>
		<use xlink:href="#wave" transform="translate(0,17.320508)"/>
		<g id="s" transform="translate(0,-120) scale(2.25)">
			<path d="M 0,-5 L 1,-1.732051 4.330127,-2.5 2,0 4.330127,2.5 1,1.732051 0,5 -1,1.732051 -4.330127,2.5 -2,0 -4.330127,-2.5 -1,-1.732051 z" fill="#ffdd00" stroke-width="0.2"/>
		</g>
		<use xlink:href="#s" transform="translate(-33.75,-45)"/>
		<use xlink:href="#s" transform="translate(33.75,-45)"/>
		<path d="M -111.5789,-167.05087 L -101.6171,-20.0633 A 146.9534 146.9534 0 0 0 0,109.893917 A 146.9534 146.9534  0 0 0 101.6171,-20.0633 L 111.5789,-167.05087 A 280.2231,280.2231 0 0 0 120,-163.22914 L 110.2575,-19.4777 A 155.6137 155.6137 0 0 1 0,118.965149 A 155.6137 155.6137 0 0 1 -110.2575,-19.4777 L -120,-163.22914 A 280.2231,280.2231 0 0 0 -111.5789,-167.05087" fill="#ed1c24"/>
	</svg>
</g>
</svg>
